<?xml version="1.0" standalone="no"?>
<!DOCTYPE svg PUBLIC "-//W3C//DTD SVG 20010904//EN"
 "http://www.w3.org/TR/2001/REC-SVG-20010904/DTD/svg10.dtd">
<svg version="1.0" xmlns="http://www.w3.org/2000/svg"
 width="400.000000pt" height="400.000000pt" viewBox="0 0 400.000000 400.000000"
 preserveAspectRatio="xMidYMid meet">
<metadata>
Created by potrace 1.11, written by Peter Selinger 2001-2013
</metadata>
<g transform="translate(0.000000,400.000000) scale(0.100000,-0.100000)"
fill="#000000" stroke="none">
<path d="M1040 2641 c-84 -17 -165 -82 -196 -158 -21 -49 -23 -90 -24 -475 0
-305 -2 -347 -15 -342 -10 4 -15 -1 -16 -15 -1 -12 -2 -29 -3 -38 -1 -16 10
-18 75 -21 l75 -3 -1 -177 c0 -97 3 -192 6 -210 13 -63 3 -62 453 -59 l409 2
19 25 c16 23 19 45 19 197 l1 172 39 19 c45 23 95 21 152 -4 l38 -17 -1 -96
c-1 -53 -1 -133 -1 -178 2 -132 -33 -123 451 -123 l407 0 21 23 c21 22 22 32
22 225 l0 202 75 0 75 0 0 40 c0 22 -3 39 -7 39 -5 -1 -13 -1 -18 0 -7 1 -11
126 -11 384 -1 361 -2 385 -21 427 -11 25 -32 59 -47 77 -30 35 -113 79 -163
87 -32 4 -33 3 -33 -34 0 -36 2 -38 44 -49 56 -14 104 -54 127 -106 16 -36 18
-75 19 -411 0 -203 -2 -373 -6 -376 -9 -10 -34 2 -34 16 0 7 -10 22 -23 34
-23 22 -26 22 -428 22 -394 0 -406 -1 -427 -20 -15 -14 -22 -33 -22 -56 0 -32
-2 -35 -22 -27 -29 10 -144 10 -180 0 -26 -7 -28 -5 -28 23 0 19 -9 40 -25 55
l-24 25 -404 0 -404 0 -20 -22 c-11 -13 -22 -29 -25 -37 -2 -8 -12 -15 -21
-17 -17 -2 -17 23 -15 389 l3 392 25 37 c21 31 105 90 125 88 28 -2 33 3 33
40 0 22 -2 39 -6 39 -4 -1 -23 -4 -42 -8z m720 -983 c3 -4 5 -105 5 -225 l-1
-218 -376 -2 -377 -2 0 212 c0 117 2 219 5 227 3 13 52 15 371 16 203 0 370
-4 373 -8z m1135 -218 l0 -225 -376 -2 -377 -2 -1 221 c0 122 1 224 3 227 3 4
172 6 378 6 l373 0 0 -225z"/>
<path d="M2112 2503 c-10 -16 -33 -64 -51 -108 -17 -44 -35 -86 -40 -93 -4 -7
-7 32 -7 87 1 106 -7 130 -37 109 -16 -12 -18 -43 -19 -331 -2 -261 0 -320 11
-327 36 -22 41 -3 41 170 0 128 3 170 13 179 13 11 31 -40 94 -269 24 -87 33
-99 62 -81 11 7 6 35 -29 157 -23 81 -52 174 -65 207 l-22 60 52 123 c37 87
49 126 42 133 -16 16 -24 14 -45 -16z"/>
<path d="M2471 2516 c-7 -8 -31 -60 -55 -115 -23 -56 -45 -99 -47 -96 -3 3 -4
45 -2 95 3 79 1 90 -16 99 -38 21 -41 -2 -41 -334 -1 -325 1 -342 37 -328 10
4 13 42 13 173 0 128 3 170 13 179 11 9 22 -17 56 -137 56 -193 63 -214 79
-220 7 -2 18 0 24 6 13 13 1 61 -69 284 l-46 147 51 118 c36 85 47 122 40 131
-14 16 -23 15 -37 -2z"/>
<path d="M1043 2503 c-10 -4 -13 -79 -13 -328 0 -285 2 -324 16 -329 28 -11
111 -6 122 7 17 20 -2 40 -40 43 -18 1 -36 3 -40 3 -3 1 -7 61 -7 135 -1 121
0 133 16 133 37 0 43 4 43 23 0 11 -6 21 -12 21 -7 1 -20 2 -28 3 -12 1 -16
23 -18 119 l-3 117 24 0 c34 0 54 25 37 45 -12 14 -70 19 -97 8z"/>
<path d="M1329 2508 c-1 -2 -2 -86 -4 -188 -1 -102 -3 -247 -5 -322 -1 -75 1
-141 5 -147 9 -15 45 -14 46 2 1 6 1 82 1 167 1 96 4 143 9 125 4 -16 20 -82
35 -145 36 -154 38 -160 69 -160 31 0 31 8 4 113 -11 45 -22 89 -24 97 -2 8
-13 49 -24 91 -20 76 -20 76 -1 132 11 31 20 73 20 94 0 47 -32 118 -58 132
-18 10 -70 16 -73 9z m65 -85 c15 -66 15 -79 6 -115 -19 -70 -30 -53 -30 46 0
92 12 126 24 69z"/>
<path d="M1644 2496 c-7 -19 3 -36 22 -36 11 0 14 -19 14 -97 1 -54 3 -180 7
-280 4 -158 3 -183 -10 -183 -8 0 -20 -6 -26 -14 -20 -23 11 -37 76 -34 51 3
58 6 61 25 2 16 -3 22 -20 25 -19 2 -23 9 -24 43 -2 54 -16 420 -18 473 -2 38
0 42 21 42 20 0 24 5 21 23 -3 19 -10 22 -61 25 -44 2 -59 -1 -63 -12z"/>
<path d="M2829 2493 c0 -29 3 -268 6 -410 4 -143 -2 -181 -27 -197 -34 -21
-68 37 -82 139 -8 59 -16 199 -18 335 -1 66 -5 124 -8 131 -4 6 -16 9 -26 7
-17 -3 -19 -13 -19 -108 1 -162 14 -384 26 -442 8 -37 22 -63 46 -87 30 -30
38 -33 74 -28 43 6 63 24 78 72 10 35 8 575 -3 593 -11 19 -46 15 -47 -5z"/>
</g>
</svg>
